<svg
  xmlns="http://www.w3.org/2000/svg"
  xmlns:xlink="http://www.w3.org/1999/xlink"
  version="1.1"
  x="0px"
  y="0px"
  width="40px"
  height="40px"
  viewBox="0 0 100 100"
  enable-background="new 0 0 100 100"
  xml:space="preserve"
>
  <g>
    <path d="M15,39.906c0,0,0,11.266,0,13.99c0,5.529,15.215,10.012,34,10.012c18.786,0,34-4.482,34-10.012c0-2.724,0-13.99,0-13.99   s-8.918,8.433-34,8.433C20.593,48.338,15,39.906,15,39.906z"/>
    <path d="M15,59.762c0,0,0,16.163,0,18.885c0,5.529,15.215,10.012,34,10.012c18.786,0,34-4.482,34-10.012c0-2.722,0-18.885,0-18.885   s-8.918,8.433-34,8.433C20.593,68.194,15,59.762,15,59.762z M52.316,78.068c0,1.991-1.615,3.606-3.607,3.606   c-1.993,0-3.608-1.615-3.608-3.606c0-1.994,1.615-3.609,3.608-3.609C50.701,74.459,52.316,76.074,52.316,78.068z"/>
    <path d="M49,10c-18.785,0-34,4.483-34,10.012c0,0.362,0,0.83,0,1.372c5,3.676,16.791,6.639,30.598,7.299   c1.759,0.084,3.487,0.127,5.178,0.134c-1.027,0.052-2.069,0.093-3.122,0.119C32.172,29.313,19,26.622,15,22.619   c0,3.683,0,9.275,0,11.382c0,5.529,15.215,10.012,34,10.012c18.786,0,34-4.483,34-10.012c0-2.723,0-11.267,0-13.99   C83,14.483,67.786,10,49,10z"/>
  </g>
</svg>
